<svg xmlns="http://www.w3.org/2000/svg" width="160.17" height="16.174" viewBox="0 0 160.17 16.174">
  <g id="logo-raveis" transform="translate(-29.465 -47.474)">
    <g id="Group_1" data-name="Group 1" transform="translate(29.465 47.474)">
      <path id="Path_1" data-name="Path 1" d="M40.32,43.107a1,1,0,0,1,.7.451c.371.887.6,1.459.674,1.711.048.162.1.315.158.473q.1.315.25.667l1.419,3.619,1.615,3.811,1.953,4.809.631-.034a10.629,10.629,0,0,0,.925-1.7L49.568,55q.852-1.938,1.46-3.114l.141-.245q1.1,2.1,2.486,5.277.532,1.249.691,1.7c.1.007.185.009.243.009a1.541,1.541,0,0,0,.292-.046l.526-1.377,1.316-3.627q.963-2.4,1.77-4.6l.135-.349.195-.484c.107-.249.177-.422.211-.519a5.639,5.639,0,0,1,.326-.832c.489-1.4.743-2.129.769-2.171a8,8,0,0,1,.419-.921,1.308,1.308,0,0,1,.322-.315,6.914,6.914,0,0,1,1.064-.484,1.952,1.952,0,0,0,.024-.255l-.014-.121-.361-.024h-.9l-1.052.011-.927-.024c-.088,0-.3.008-.642.024l-.013.09a.946.946,0,0,0,.037.23.743.743,0,0,0,.192.11,4.207,4.207,0,0,1,1.193.38.4.4,0,0,1,.172.307.893.893,0,0,1-.035.195l-.037.192c-.088.428-.209.872-.352,1.332L57.81,49.333l-.938,2.346q-.387.977-.779,1.86L55.35,55.46l-.024.062-.183.578c-.188-.5-.415-1.047-.7-1.637s-.445-.946-.5-1.079l-1.249-2.9c-.209-.469-.356-.807-.447-1.018l.5-1.153a4.529,4.529,0,0,0,.315-.742q.209-.448.529-1.348l.9-1.965a2.062,2.062,0,0,1,.538-.654,3.29,3.29,0,0,1,1.363-.487,1.092,1.092,0,0,0,.463-.146.26.26,0,0,0,.1-.213.263.263,0,0,0-.095-.179c-.129-.032-.227-.053-.293-.061l-.851.013-.509-.013h-.825c-1-.039-1.566-.051-1.689-.035a.278.278,0,0,0-.275.3l.009.1.221.095.255.034a1.347,1.347,0,0,1,.71.2.647.647,0,0,1,.2.46,4.448,4.448,0,0,1-.415,1.466c-.649,1.6-1.157,2.769-1.533,3.511l-1.235-2.78a16.916,16.916,0,0,1-.932-2.417.221.221,0,0,1,.114-.195,3.288,3.288,0,0,1,.838-.158,3.055,3.055,0,0,0,.7-.12.657.657,0,0,0,.05-.215.285.285,0,0,0-.085-.194.356.356,0,0,0-.255-.085l-.194.008c-.147,0-.255-.008-.327-.008l-1.142.035h-.631l-.6.013H47.5l-.389.013-.767-.025c-.1,0-.285.006-.542.013a.259.259,0,0,0-.111.17.366.366,0,0,0,.1.251l.255.06a3.252,3.252,0,0,1,1.291.22,4.028,4.028,0,0,1,.695,1.254c.158.348.366.819.637,1.413l2.073,4.746.1.244A21.87,21.87,0,0,1,49.8,53.223q-1.053,2.212-1.6,3.1c-.072-.146-.123-.251-.146-.315q-.691-1.577-.871-2.05c-.347-.915-.631-1.628-.862-2.135-.072-.162-.213-.526-.422-1.082l-1.819-4.562-.76-2.135c-.058-.154-.117-.3-.183-.436a.669.669,0,0,1-.076-.232.569.569,0,0,1,.049-.182,1.8,1.8,0,0,1,.229-.061l1.154-.05c.014-.134.024-.237.024-.311,0-.047,0-.119-.012-.214q-.326-.05-1.9-.048l-.288.011-.653-.011-1.122-.01c-.523,0-.839.074-.952.22l.014.2A3.8,3.8,0,0,0,40.32,43.107Z" transform="translate(-39.592 -42.474)" fill="#5d89b4"/>
      <path id="Path_2" data-name="Path 2" d="M91.128,47.832a1.43,1.43,0,0,1,1.2-.49h.486v-.354H87.043v.354h.48a1.878,1.878,0,0,1,.918.24.888.888,0,0,1,.408.434,4.449,4.449,0,0,1,.132,1.368v8.627a3.051,3.051,0,0,1-.241,1.55,1.43,1.43,0,0,1-1.216.5h-.48v.352H92.82v-.352h-.486a1.8,1.8,0,0,1-.906-.244.888.888,0,0,1-.415-.432,4.591,4.591,0,0,1-.129-1.369V49.384A3.056,3.056,0,0,1,91.128,47.832Z" transform="translate(-65.377 -44.927)" fill="#5d89b4"/>
      <path id="Path_3" data-name="Path 3" d="M114.789,56.779l-.315-.07a6.525,6.525,0,0,1-1.029,1.822,2.8,2.8,0,0,1-1.139.8,7.123,7.123,0,0,1-2.171.226h-.985a6.4,6.4,0,0,1-1.545-.1.71.71,0,0,1-.366-.306,2.76,2.76,0,0,1-.158-1.135V49.559a4.22,4.22,0,0,1,.158-1.5,1.209,1.209,0,0,1,.577-.523,3.657,3.657,0,0,1,1.483-.192v-.354h-6.06v.354h.51a1.441,1.441,0,0,1,1.151.443,2.869,2.869,0,0,1,.276,1.6v8.623a3.26,3.26,0,0,1-.207,1.483,1.357,1.357,0,0,1-1.22.562h-.51v.352H113.63Z" transform="translate(-74.178 -44.928)" fill="#5d89b4"/>
      <path id="Path_4" data-name="Path 4" d="M129.632,47.787a2.833,2.833,0,0,1,.278,1.6v8.626a3.29,3.29,0,0,1-.209,1.483,1.356,1.356,0,0,1-1.222.562h-.509v.352h10.391l1.16-3.627-.315-.07a6.565,6.565,0,0,1-1.034,1.822,2.794,2.794,0,0,1-1.137.8,7.115,7.115,0,0,1-2.171.226h-.981a6.405,6.405,0,0,1-1.548-.1.71.71,0,0,1-.367-.306,2.779,2.779,0,0,1-.158-1.135V49.559a4.3,4.3,0,0,1,.158-1.5,1.21,1.21,0,0,1,.581-.524,3.643,3.643,0,0,1,1.483-.192v-.354h-6.061v.354h.509A1.447,1.447,0,0,1,129.632,47.787Z" transform="translate(-87.619 -44.928)" fill="#5d89b4"/>
      <path id="Path_5" data-name="Path 5" d="M154.335,47.582a.883.883,0,0,1,.408.434,4.493,4.493,0,0,1,.129,1.368v8.627a3.084,3.084,0,0,1-.237,1.55,1.44,1.44,0,0,1-1.221.5h-.477v.352h5.774v-.352h-.482a1.8,1.8,0,0,1-.906-.244.885.885,0,0,1-.416-.432,4.572,4.572,0,0,1-.13-1.369V49.384a3.022,3.022,0,0,1,.248-1.552,1.424,1.424,0,0,1,1.2-.49h.482v-.354h-5.774v.354h.477a1.878,1.878,0,0,1,.921.24Z" transform="translate(-101.187 -44.927)" fill="#5d89b4"/>
      <path id="Path_6" data-name="Path 6" d="M170.46,59.718a2.523,2.523,0,0,1-1.265-.305.679.679,0,0,1-.29-.544,3.423,3.423,0,0,1,.333-1.176l.906-2.1h5.228l.8,1.925a4.136,4.136,0,0,1,.394,1.374.694.694,0,0,1-.28.552,2.014,2.014,0,0,1-1.087.267v.352h5.332v-.349a2.1,2.1,0,0,1-1.284-.455,5.113,5.113,0,0,1-1.025-1.759l-4.607-11.132h-.445l-4.746,11a6.2,6.2,0,0,1-1.12,1.958,2.291,2.291,0,0,1-1.09.394v.352h4.247Zm2.356-10.328,2.234,5.429h-4.573Z" transform="translate(-108.403 -44.592)" fill="#5d89b4"/>
      <path id="Path_7" data-name="Path 7" d="M202.7,60.055h-.484a1.5,1.5,0,0,1-1.183-.418,2.723,2.723,0,0,1-.274-1.555V49.113l5.177,11.294h.315l5.178-11.294v8.969a3.026,3.026,0,0,1-.22,1.455,1.378,1.378,0,0,1-1.229.518h-.48v.352h5.776v-.352H214.8a1.51,1.51,0,0,1-1.183-.418,2.665,2.665,0,0,1-.281-1.555V49.313a2.978,2.978,0,0,1,.221-1.455,1.41,1.41,0,0,1,1.239-.516h.477v-.354h-3.83l-4.787,10.434-4.825-10.434H197.94v.354a2.869,2.869,0,0,1,1.216.192,1.12,1.12,0,0,1,.516.482,3.041,3.041,0,0,1,.207,1.3v8.77a3.017,3.017,0,0,1-.223,1.455,1.4,1.4,0,0,1-1.235.518h-.482v.352H202.7Z" transform="translate(-125.643 -44.927)" fill="#5d89b4"/>
      <path id="Path_8" data-name="Path 8" d="M261.793,58.084v-.345a2.5,2.5,0,0,1-1.244-.3.67.67,0,0,1-.29-.535,3.351,3.351,0,0,1,.332-1.159l.892-2.064h5.146l.783,1.9a4.089,4.089,0,0,1,.394,1.352.69.69,0,0,1-.278.546,1.984,1.984,0,0,1-1.071.264v.345h5.251V57.74a2.05,2.05,0,0,1-1.261-.447,4.936,4.936,0,0,1-1.011-1.734l-4.529-10.964h-.441l-4.674,10.829c-.714,1.583-.857,1.874-1.538,1.874a1.419,1.419,0,0,1-1.154-.64,14.6,14.6,0,0,1-1.251-1.778l-1.488-2.586a22.976,22.976,0,0,1-1.112-2.05,5.451,5.451,0,0,1,.611-.356,3.659,3.659,0,0,0,1.643-5.44,3.434,3.434,0,0,0-1.7-1.328,12.158,12.158,0,0,0-3.724-.394l-3.135.036h-.978a4.755,4.755,0,0,0-.507.029c-.178.02-.285.028-.325.028a1,1,0,0,0-.552.119,1.164,1.164,0,0,0-.032.213.209.209,0,0,0,.093.19,5.671,5.671,0,0,0,1.011.184,1.771,1.771,0,0,1,1.138.427A3.536,3.536,0,0,1,247,45.614l-.011,2.151.011,3-.021,1.614.033,1.424c0,.335,0,.677-.023,1.025-.061,1.244-.091,1.971-.091,2.163v.137a.662.662,0,0,1-.287.356,16.545,16.545,0,0,1-1.965.289.373.373,0,0,0-.162.249l.019.119.241.047c.65-.054,1.008-.079,1.08-.079l1.577.025,1.61-.051c.1,0,.222,0,.368.012.3.014.8.022,1.509.022a3.089,3.089,0,0,0,.451-.057.489.489,0,0,0-.095-.315l-.48-.114a7,7,0,0,1-1.325-.412.758.758,0,0,1-.32-.364,2.352,2.352,0,0,1-.1-.631V52.145c0-.788.014-1.31.039-1.563l.333.011,1.015-.011a1.334,1.334,0,0,1,.614.124,2.208,2.208,0,0,1,.586.623l1.754,3.207c.752,1.289,1.415,2.471,1.976,3.548.183.015.326.024.434.024,1.462,0,2.741-.009,3.832-.024Zm2.317-10.512,2.2,5.345h-4.5Zm-12.588,2.16a11.352,11.352,0,0,1-1.983.2c-.1,0-.264,0-.479-.012q-.05-1.44-.05-2.371l.012-.918-.058-2.228c0-.222.016-.542.046-.954.345-.024.621-.036.839-.036a5.017,5.017,0,0,1,2.252.465,3.013,3.013,0,0,1,1.335,1.158,3.5,3.5,0,0,1,.512,1.714,3.348,3.348,0,0,1-.327,1.433,2.606,2.606,0,0,1-.822,1.041,3.219,3.219,0,0,1-1.276.507Z" transform="translate(-150.936 -42.607)" fill="#5d89b4"/>
      <path id="Path_9" data-name="Path 9" d="M298.98,48.474a6.324,6.324,0,0,1,.535,1.077l4.955,11.371h.456l4.59-11.205a4.1,4.1,0,0,1,.918-1.484,2.122,2.122,0,0,1,1.066-.455h.345a1.5,1.5,0,0,1,1.183.4,3.013,3.013,0,0,1,.255,1.607v8.5a4.729,4.729,0,0,1-.114,1.3.847.847,0,0,1-.427.48,1.887,1.887,0,0,1-.9.229h-.465v.345h10.229l1.142-3.329h-.415a7.47,7.47,0,0,1-1.238,1.805,2.421,2.421,0,0,1-.976.606,6.077,6.077,0,0,1-1.626.158H316.25a1.629,1.629,0,0,1-.742-.114.593.593,0,0,1-.273-.3,3.967,3.967,0,0,1-.079-1.058V54.09h2.881a2.907,2.907,0,0,1,1.228.2,1.227,1.227,0,0,1,.579.535,5.073,5.073,0,0,1,.271,1.246h.346V51.453h-.346a2.157,2.157,0,0,1-.565,1.571,2.38,2.38,0,0,1-1.513.338h-2.881V48.193h3.6a4.319,4.319,0,0,1,1.362.145,1.539,1.539,0,0,1,.732.587,4.493,4.493,0,0,1,.448,1.419h.417l-.14-2.917H307.408v.347l.166.03a1.844,1.844,0,0,1,.956.367.737.737,0,0,1,.282.539,5.179,5.179,0,0,1-.461,1.571l-3.137,7.655-3.381-7.755a4.358,4.358,0,0,1-.449-1.52.713.713,0,0,1,.274-.576,2.464,2.464,0,0,1,1.193-.315v-.347h-5.433v.347a2.775,2.775,0,0,1,.961.22,1.782,1.782,0,0,1,.6.483Z" transform="translate(-179.703 -45.167)" fill="#5d89b4"/>
      <path id="Path_10" data-name="Path 10" d="M361.112,60.3h-.482a1.765,1.765,0,0,1-.887-.237.894.894,0,0,1-.411-.426,4.446,4.446,0,0,1-.126-1.349v-8.5a3,3,0,0,1,.242-1.526,1.4,1.4,0,0,1,1.183-.486h.482v-.347h-5.686v.347h.473a1.851,1.851,0,0,1,.9.237.907.907,0,0,1,.405.427,4.513,4.513,0,0,1,.132,1.347v8.5a3.062,3.062,0,0,1-.237,1.529,1.426,1.426,0,0,1-1.2.486h-.473v.345h5.686Z" transform="translate(-211.227 -45.169)" fill="#5d89b4"/>
      <path id="Path_11" data-name="Path 11" d="M372.576,53.046a19.475,19.475,0,0,0,2.431,1.5,21.387,21.387,0,0,1,2.089,1.22,3.013,3.013,0,0,1,.825.924,2.044,2.044,0,0,1,.269.983,1.981,1.981,0,0,1-.71,1.522,2.771,2.771,0,0,1-1.935.644,4.082,4.082,0,0,1-1.942-.473,3.311,3.311,0,0,1-1.318-1.176,6.386,6.386,0,0,1-.681-2.137h-.352V60.6h.352a1.171,1.171,0,0,1,.209-.617.512.512,0,0,1,.384-.147,5.571,5.571,0,0,1,1.21.311,11.285,11.285,0,0,0,1.256.362,6.235,6.235,0,0,0,1.089.09,4.245,4.245,0,0,0,3.005-1.082,3.39,3.39,0,0,0,1.167-2.575,3.252,3.252,0,0,0-.366-1.5,3.716,3.716,0,0,0-1.042-1.245,20.158,20.158,0,0,0-2.535-1.52,10.8,10.8,0,0,1-2.882-1.936,1.638,1.638,0,0,1-.422-1.1,1.862,1.862,0,0,1,.667-1.4,2.4,2.4,0,0,1,1.685-.616,3.66,3.66,0,0,1,1.749.455,3.291,3.291,0,0,1,1.3,1.22,5.717,5.717,0,0,1,.631,2.07h.348V46.828h-.348a1.2,1.2,0,0,1-.259.611.587.587,0,0,1-.419.15,2.286,2.286,0,0,1-.773-.244,5.647,5.647,0,0,0-2.247-.516,3.928,3.928,0,0,0-2.8,1.025,3.237,3.237,0,0,0-1.1,2.449,3.1,3.1,0,0,0,.368,1.5,4.178,4.178,0,0,0,1.089,1.246Z" transform="translate(-219.754 -44.84)" fill="#5d89b4"/>
    </g>
  </g>
</svg>
